<?xml version="1.0" encoding="utf-8"?>
<!-- Generator: Adobe Illustrator 23.0.4, SVG Export Plug-In . SVG Version: 6.00 Build 0)  -->
<svg version="1.1" id="pdf-frame" xmlns="http://www.w3.org/2000/svg" xmlns:xlink="http://www.w3.org/1999/xlink" x="0px" y="0px"
	 viewBox="0 0 279 361.7" style="enable-background:new 0 0 279 361.7;" xml:space="preserve">
<style type="text/css">
	.frame-color{fill:#000000;}
	.background-color{fill:#ffffff;}
	.text-color{fill:#FFFFFF;}
	.icon-color{fill:#000000;opacity:1;}
	.icon-black{fill:#000000;opacity:0}

	.circle-color{fill:#000000;}
	.circle-color-black{fill:#FFFFFF;}
	.circle-outline{fill:#000000;opacity:0}

	.show_on_light{opacity:0;}
	.hide_on_light{opacity:1;}
</style>

<svg xmlns="http://www.w3.org/2000/svg" xmlns:xlink="http://www.w3.org/1999/xlink" version="1.1" width="259.8" height="259.8" viewBox="0 0 2000 2000" x="9.6" y="9.6" shape-rendering="crispEdges"><defs/><rect x="0" y="0" width="2000" height="2000" fill="#ffffff"/><svg viewBox="0 0 3.4 3.4" x="712" y="200" width="64" height="64" shape-rendering="auto"><circle fill="#3c1053" cx="1.7" cy="1.7" r="1.7"/></svg><svg viewBox="0 0 3.4 3.4" x="776" y="200" width="64" height="64" shape-rendering="auto"><circle fill="#3c1053" cx="1.7" cy="1.7" r="1.7"/></svg><svg viewBox="0 0 3.4 3.4" x="1096" y="200" width="64" height="64" shape-rendering="auto"><circle fill="#3c1053" cx="1.7" cy="1.7" r="1.7"/></svg><svg viewBox="0 0 3.4 3.4" x="1224" y="200" width="64" height="64" shape-rendering="auto"><circle fill="#3c1053" cx="1.7" cy="1.7" r="1.7"/></svg><svg viewBox="0 0 3.4 3.4" x="1032" y="264" width="64" height="64" shape-rendering="auto"><circle fill="#3c1053" cx="1.7" cy="1.7" r="1.7"/></svg><svg viewBox="0 0 3.4 3.4" x="1160" y="264" width="64" height="64" shape-rendering="auto"><circle fill="#3c1053" cx="1.7" cy="1.7" r="1.7"/></svg><svg viewBox="0 0 3.4 3.4" x="712" y="328" width="64" height="64" shape-rendering="auto"><circle fill="#3c1053" cx="1.7" cy="1.7" r="1.7"/></svg><svg viewBox="0 0 3.4 3.4" x="904" y="328" width="64" height="64" shape-rendering="auto"><circle fill="#3c1053" cx="1.7" cy="1.7" r="1.7"/></svg><svg viewBox="0 0 3.4 3.4" x="968" y="328" width="64" height="64" shape-rendering="auto"><circle fill="#3c1053" cx="1.7" cy="1.7" r="1.7"/></svg><svg viewBox="0 0 3.4 3.4" x="1032" y="328" width="64" height="64" shape-rendering="auto"><circle fill="#3c1053" cx="1.7" cy="1.7" r="1.7"/></svg><svg viewBox="0 0 3.4 3.4" x="1160" y="328" width="64" height="64" shape-rendering="auto"><circle fill="#3c1053" cx="1.7" cy="1.7" r="1.7"/></svg><svg viewBox="0 0 3.4 3.4" x="1224" y="328" width="64" height="64" shape-rendering="auto"><circle fill="#3c1053" cx="1.7" cy="1.7" r="1.7"/></svg><svg viewBox="0 0 3.4 3.4" x="712" y="392" width="64" height="64" shape-rendering="auto"><circle fill="#3c1053" cx="1.7" cy="1.7" r="1.7"/></svg><svg viewBox="0 0 3.4 3.4" x="776" y="392" width="64" height="64" shape-rendering="auto"><circle fill="#3c1053" cx="1.7" cy="1.7" r="1.7"/></svg><svg viewBox="0 0 3.4 3.4" x="904" y="392" width="64" height="64" shape-rendering="auto"><circle fill="#3c1053" cx="1.7" cy="1.7" r="1.7"/></svg><svg viewBox="0 0 3.4 3.4" x="1032" y="392" width="64" height="64" shape-rendering="auto"><circle fill="#3c1053" cx="1.7" cy="1.7" r="1.7"/></svg><svg viewBox="0 0 3.4 3.4" x="1160" y="392" width="64" height="64" shape-rendering="auto"><circle fill="#3c1053" cx="1.7" cy="1.7" r="1.7"/></svg><svg viewBox="0 0 3.4 3.4" x="1224" y="392" width="64" height="64" shape-rendering="auto"><circle fill="#3c1053" cx="1.7" cy="1.7" r="1.7"/></svg><svg viewBox="0 0 3.4 3.4" x="712" y="456" width="64" height="64" shape-rendering="auto"><circle fill="#3c1053" cx="1.7" cy="1.7" r="1.7"/></svg><svg viewBox="0 0 3.4 3.4" x="776" y="456" width="64" height="64" shape-rendering="auto"><circle fill="#3c1053" cx="1.7" cy="1.7" r="1.7"/></svg><svg viewBox="0 0 3.4 3.4" x="840" y="456" width="64" height="64" shape-rendering="auto"><circle fill="#3c1053" cx="1.7" cy="1.7" r="1.7"/></svg><svg viewBox="0 0 3.4 3.4" x="904" y="456" width="64" height="64" shape-rendering="auto"><circle fill="#3c1053" cx="1.7" cy="1.7" r="1.7"/></svg><svg viewBox="0 0 3.4 3.4" x="1096" y="456" width="64" height="64" shape-rendering="auto"><circle fill="#3c1053" cx="1.7" cy="1.7" r="1.7"/></svg><svg viewBox="0 0 3.4 3.4" x="1224" y="456" width="64" height="64" shape-rendering="auto"><circle fill="#3c1053" cx="1.7" cy="1.7" r="1.7"/></svg><svg viewBox="0 0 3.4 3.4" x="776" y="520" width="64" height="64" shape-rendering="auto"><circle fill="#3c1053" cx="1.7" cy="1.7" r="1.7"/></svg><svg viewBox="0 0 3.4 3.4" x="968" y="520" width="64" height="64" shape-rendering="auto"><circle fill="#3c1053" cx="1.7" cy="1.7" r="1.7"/></svg><svg viewBox="0 0 3.4 3.4" x="1096" y="520" width="64" height="64" shape-rendering="auto"><circle fill="#3c1053" cx="1.7" cy="1.7" r="1.7"/></svg><svg viewBox="0 0 3.4 3.4" x="1224" y="520" width="64" height="64" shape-rendering="auto"><circle fill="#3c1053" cx="1.7" cy="1.7" r="1.7"/></svg><svg viewBox="0 0 3.4 3.4" x="712" y="584" width="64" height="64" shape-rendering="auto"><circle fill="#3c1053" cx="1.7" cy="1.7" r="1.7"/></svg><svg viewBox="0 0 3.4 3.4" x="840" y="584" width="64" height="64" shape-rendering="auto"><circle fill="#3c1053" cx="1.7" cy="1.7" r="1.7"/></svg><svg viewBox="0 0 3.4 3.4" x="968" y="584" width="64" height="64" shape-rendering="auto"><circle fill="#3c1053" cx="1.7" cy="1.7" r="1.7"/></svg><svg viewBox="0 0 3.4 3.4" x="1096" y="584" width="64" height="64" shape-rendering="auto"><circle fill="#3c1053" cx="1.7" cy="1.7" r="1.7"/></svg><svg viewBox="0 0 3.4 3.4" x="1224" y="584" width="64" height="64" shape-rendering="auto"><circle fill="#3c1053" cx="1.7" cy="1.7" r="1.7"/></svg><svg viewBox="0 0 3.4 3.4" x="776" y="648" width="64" height="64" shape-rendering="auto"><circle fill="#3c1053" cx="1.7" cy="1.7" r="1.7"/></svg><svg viewBox="0 0 3.4 3.4" x="904" y="648" width="64" height="64" shape-rendering="auto"><circle fill="#3c1053" cx="1.7" cy="1.7" r="1.7"/></svg><svg viewBox="0 0 3.4 3.4" x="1096" y="648" width="64" height="64" shape-rendering="auto"><circle fill="#3c1053" cx="1.7" cy="1.7" r="1.7"/></svg><svg viewBox="0 0 3.4 3.4" x="1160" y="648" width="64" height="64" shape-rendering="auto"><circle fill="#3c1053" cx="1.7" cy="1.7" r="1.7"/></svg><svg viewBox="0 0 3.4 3.4" x="1224" y="648" width="64" height="64" shape-rendering="auto"><circle fill="#3c1053" cx="1.7" cy="1.7" r="1.7"/></svg><svg viewBox="0 0 3.4 3.4" x="200" y="712" width="64" height="64" shape-rendering="auto"><circle fill="#3c1053" cx="1.7" cy="1.7" r="1.7"/></svg><svg viewBox="0 0 3.4 3.4" x="264" y="712" width="64" height="64" shape-rendering="auto"><circle fill="#3c1053" cx="1.7" cy="1.7" r="1.7"/></svg><svg viewBox="0 0 3.4 3.4" x="328" y="712" width="64" height="64" shape-rendering="auto"><circle fill="#3c1053" cx="1.7" cy="1.7" r="1.7"/></svg><svg viewBox="0 0 3.4 3.4" x="392" y="712" width="64" height="64" shape-rendering="auto"><circle fill="#3c1053" cx="1.7" cy="1.7" r="1.7"/></svg><svg viewBox="0 0 3.4 3.4" x="584" y="712" width="64" height="64" shape-rendering="auto"><circle fill="#3c1053" cx="1.7" cy="1.7" r="1.7"/></svg><svg viewBox="0 0 3.4 3.4" x="712" y="712" width="64" height="64" shape-rendering="auto"><circle fill="#3c1053" cx="1.7" cy="1.7" r="1.7"/></svg><svg viewBox="0 0 3.4 3.4" x="1032" y="712" width="64" height="64" shape-rendering="auto"><circle fill="#3c1053" cx="1.7" cy="1.7" r="1.7"/></svg><svg viewBox="0 0 3.4 3.4" x="1096" y="712" width="64" height="64" shape-rendering="auto"><circle fill="#3c1053" cx="1.7" cy="1.7" r="1.7"/></svg><svg viewBox="0 0 3.4 3.4" x="1224" y="712" width="64" height="64" shape-rendering="auto"><circle fill="#3c1053" cx="1.7" cy="1.7" r="1.7"/></svg><svg viewBox="0 0 3.4 3.4" x="1288" y="712" width="64" height="64" shape-rendering="auto"><circle fill="#3c1053" cx="1.7" cy="1.7" r="1.7"/></svg><svg viewBox="0 0 3.4 3.4" x="1480" y="712" width="64" height="64" shape-rendering="auto"><circle fill="#3c1053" cx="1.7" cy="1.7" r="1.7"/></svg><svg viewBox="0 0 3.4 3.4" x="1544" y="712" width="64" height="64" shape-rendering="auto"><circle fill="#3c1053" cx="1.7" cy="1.7" r="1.7"/></svg><svg viewBox="0 0 3.4 3.4" x="1608" y="712" width="64" height="64" shape-rendering="auto"><circle fill="#3c1053" cx="1.7" cy="1.7" r="1.7"/></svg><svg viewBox="0 0 3.4 3.4" x="1736" y="712" width="64" height="64" shape-rendering="auto"><circle fill="#3c1053" cx="1.7" cy="1.7" r="1.7"/></svg><svg viewBox="0 0 3.4 3.4" x="392" y="776" width="64" height="64" shape-rendering="auto"><circle fill="#3c1053" cx="1.7" cy="1.7" r="1.7"/></svg><svg viewBox="0 0 3.4 3.4" x="456" y="776" width="64" height="64" shape-rendering="auto"><circle fill="#3c1053" cx="1.7" cy="1.7" r="1.7"/></svg><svg viewBox="0 0 3.4 3.4" x="776" y="776" width="64" height="64" shape-rendering="auto"><circle fill="#3c1053" cx="1.7" cy="1.7" r="1.7"/></svg><svg viewBox="0 0 3.4 3.4" x="1096" y="776" width="64" height="64" shape-rendering="auto"><circle fill="#3c1053" cx="1.7" cy="1.7" r="1.7"/></svg><svg viewBox="0 0 3.4 3.4" x="1160" y="776" width="64" height="64" shape-rendering="auto"><circle fill="#3c1053" cx="1.7" cy="1.7" r="1.7"/></svg><svg viewBox="0 0 3.4 3.4" x="1224" y="776" width="64" height="64" shape-rendering="auto"><circle fill="#3c1053" cx="1.7" cy="1.7" r="1.7"/></svg><svg viewBox="0 0 3.4 3.4" x="1288" y="776" width="64" height="64" shape-rendering="auto"><circle fill="#3c1053" cx="1.7" cy="1.7" r="1.7"/></svg><svg viewBox="0 0 3.4 3.4" x="1416" y="776" width="64" height="64" shape-rendering="auto"><circle fill="#3c1053" cx="1.7" cy="1.7" r="1.7"/></svg><svg viewBox="0 0 3.4 3.4" x="1480" y="776" width="64" height="64" shape-rendering="auto"><circle fill="#3c1053" cx="1.7" cy="1.7" r="1.7"/></svg><svg viewBox="0 0 3.4 3.4" x="1736" y="776" width="64" height="64" shape-rendering="auto"><circle fill="#3c1053" cx="1.7" cy="1.7" r="1.7"/></svg><svg viewBox="0 0 3.4 3.4" x="200" y="840" width="64" height="64" shape-rendering="auto"><circle fill="#3c1053" cx="1.7" cy="1.7" r="1.7"/></svg><svg viewBox="0 0 3.4 3.4" x="328" y="840" width="64" height="64" shape-rendering="auto"><circle fill="#3c1053" cx="1.7" cy="1.7" r="1.7"/></svg><svg viewBox="0 0 3.4 3.4" x="392" y="840" width="64" height="64" shape-rendering="auto"><circle fill="#3c1053" cx="1.7" cy="1.7" r="1.7"/></svg><svg viewBox="0 0 3.4 3.4" x="584" y="840" width="64" height="64" shape-rendering="auto"><circle fill="#3c1053" cx="1.7" cy="1.7" r="1.7"/></svg><svg viewBox="0 0 3.4 3.4" x="648" y="840" width="64" height="64" shape-rendering="auto"><circle fill="#3c1053" cx="1.7" cy="1.7" r="1.7"/></svg><svg viewBox="0 0 3.4 3.4" x="1544" y="840" width="64" height="64" shape-rendering="auto"><circle fill="#3c1053" cx="1.7" cy="1.7" r="1.7"/></svg><svg viewBox="0 0 3.4 3.4" x="1608" y="840" width="64" height="64" shape-rendering="auto"><circle fill="#3c1053" cx="1.7" cy="1.7" r="1.7"/></svg><svg viewBox="0 0 3.4 3.4" x="1672" y="840" width="64" height="64" shape-rendering="auto"><circle fill="#3c1053" cx="1.7" cy="1.7" r="1.7"/></svg><svg viewBox="0 0 3.4 3.4" x="1736" y="840" width="64" height="64" shape-rendering="auto"><circle fill="#3c1053" cx="1.7" cy="1.7" r="1.7"/></svg><svg viewBox="0 0 3.4 3.4" x="392" y="904" width="64" height="64" shape-rendering="auto"><circle fill="#3c1053" cx="1.7" cy="1.7" r="1.7"/></svg><svg viewBox="0 0 3.4 3.4" x="712" y="904" width="64" height="64" shape-rendering="auto"><circle fill="#3c1053" cx="1.7" cy="1.7" r="1.7"/></svg><svg viewBox="0 0 3.4 3.4" x="904" y="904" width="64" height="64" shape-rendering="auto"><circle fill="#3c1053" cx="1.7" cy="1.7" r="1.7"/></svg><svg viewBox="0 0 3.4 3.4" x="968" y="904" width="64" height="64" shape-rendering="auto"><circle fill="#3c1053" cx="1.7" cy="1.7" r="1.7"/></svg><svg viewBox="0 0 3.4 3.4" x="1160" y="904" width="64" height="64" shape-rendering="auto"><circle fill="#3c1053" cx="1.7" cy="1.7" r="1.7"/></svg><svg viewBox="0 0 3.4 3.4" x="1288" y="904" width="64" height="64" shape-rendering="auto"><circle fill="#3c1053" cx="1.7" cy="1.7" r="1.7"/></svg><svg viewBox="0 0 3.4 3.4" x="1352" y="904" width="64" height="64" shape-rendering="auto"><circle fill="#3c1053" cx="1.7" cy="1.7" r="1.7"/></svg><svg viewBox="0 0 3.4 3.4" x="1416" y="904" width="64" height="64" shape-rendering="auto"><circle fill="#3c1053" cx="1.7" cy="1.7" r="1.7"/></svg><svg viewBox="0 0 3.4 3.4" x="1544" y="904" width="64" height="64" shape-rendering="auto"><circle fill="#3c1053" cx="1.7" cy="1.7" r="1.7"/></svg><svg viewBox="0 0 3.4 3.4" x="1608" y="904" width="64" height="64" shape-rendering="auto"><circle fill="#3c1053" cx="1.7" cy="1.7" r="1.7"/></svg><svg viewBox="0 0 3.4 3.4" x="1736" y="904" width="64" height="64" shape-rendering="auto"><circle fill="#3c1053" cx="1.7" cy="1.7" r="1.7"/></svg><svg viewBox="0 0 3.4 3.4" x="200" y="968" width="64" height="64" shape-rendering="auto"><circle fill="#3c1053" cx="1.7" cy="1.7" r="1.7"/></svg><svg viewBox="0 0 3.4 3.4" x="264" y="968" width="64" height="64" shape-rendering="auto"><circle fill="#3c1053" cx="1.7" cy="1.7" r="1.7"/></svg><svg viewBox="0 0 3.4 3.4" x="392" y="968" width="64" height="64" shape-rendering="auto"><circle fill="#3c1053" cx="1.7" cy="1.7" r="1.7"/></svg><svg viewBox="0 0 3.4 3.4" x="584" y="968" width="64" height="64" shape-rendering="auto"><circle fill="#3c1053" cx="1.7" cy="1.7" r="1.7"/></svg><svg viewBox="0 0 3.4 3.4" x="712" y="968" width="64" height="64" shape-rendering="auto"><circle fill="#3c1053" cx="1.7" cy="1.7" r="1.7"/></svg><svg viewBox="0 0 3.4 3.4" x="776" y="968" width="64" height="64" shape-rendering="auto"><circle fill="#3c1053" cx="1.7" cy="1.7" r="1.7"/></svg><svg viewBox="0 0 3.4 3.4" x="904" y="968" width="64" height="64" shape-rendering="auto"><circle fill="#3c1053" cx="1.7" cy="1.7" r="1.7"/></svg><svg viewBox="0 0 3.4 3.4" x="1160" y="968" width="64" height="64" shape-rendering="auto"><circle fill="#3c1053" cx="1.7" cy="1.7" r="1.7"/></svg><svg viewBox="0 0 3.4 3.4" x="1352" y="968" width="64" height="64" shape-rendering="auto"><circle fill="#3c1053" cx="1.7" cy="1.7" r="1.7"/></svg><svg viewBox="0 0 3.4 3.4" x="1416" y="968" width="64" height="64" shape-rendering="auto"><circle fill="#3c1053" cx="1.7" cy="1.7" r="1.7"/></svg><svg viewBox="0 0 3.4 3.4" x="1480" y="968" width="64" height="64" shape-rendering="auto"><circle fill="#3c1053" cx="1.7" cy="1.7" r="1.7"/></svg><svg viewBox="0 0 3.4 3.4" x="1544" y="968" width="64" height="64" shape-rendering="auto"><circle fill="#3c1053" cx="1.7" cy="1.7" r="1.7"/></svg><svg viewBox="0 0 3.4 3.4" x="1672" y="968" width="64" height="64" shape-rendering="auto"><circle fill="#3c1053" cx="1.7" cy="1.7" r="1.7"/></svg><svg viewBox="0 0 3.4 3.4" x="1736" y="968" width="64" height="64" shape-rendering="auto"><circle fill="#3c1053" cx="1.7" cy="1.7" r="1.7"/></svg><svg viewBox="0 0 3.4 3.4" x="328" y="1032" width="64" height="64" shape-rendering="auto"><circle fill="#3c1053" cx="1.7" cy="1.7" r="1.7"/></svg><svg viewBox="0 0 3.4 3.4" x="456" y="1032" width="64" height="64" shape-rendering="auto"><circle fill="#3c1053" cx="1.7" cy="1.7" r="1.7"/></svg><svg viewBox="0 0 3.4 3.4" x="648" y="1032" width="64" height="64" shape-rendering="auto"><circle fill="#3c1053" cx="1.7" cy="1.7" r="1.7"/></svg><svg viewBox="0 0 3.4 3.4" x="776" y="1032" width="64" height="64" shape-rendering="auto"><circle fill="#3c1053" cx="1.7" cy="1.7" r="1.7"/></svg><svg viewBox="0 0 3.4 3.4" x="840" y="1032" width="64" height="64" shape-rendering="auto"><circle fill="#3c1053" cx="1.7" cy="1.7" r="1.7"/></svg><svg viewBox="0 0 3.4 3.4" x="904" y="1032" width="64" height="64" shape-rendering="auto"><circle fill="#3c1053" cx="1.7" cy="1.7" r="1.7"/></svg><svg viewBox="0 0 3.4 3.4" x="1160" y="1032" width="64" height="64" shape-rendering="auto"><circle fill="#3c1053" cx="1.7" cy="1.7" r="1.7"/></svg><svg viewBox="0 0 3.4 3.4" x="1224" y="1032" width="64" height="64" shape-rendering="auto"><circle fill="#3c1053" cx="1.7" cy="1.7" r="1.7"/></svg><svg viewBox="0 0 3.4 3.4" x="1416" y="1032" width="64" height="64" shape-rendering="auto"><circle fill="#3c1053" cx="1.7" cy="1.7" r="1.7"/></svg><svg viewBox="0 0 3.4 3.4" x="1544" y="1032" width="64" height="64" shape-rendering="auto"><circle fill="#3c1053" cx="1.7" cy="1.7" r="1.7"/></svg><svg viewBox="0 0 3.4 3.4" x="1672" y="1032" width="64" height="64" shape-rendering="auto"><circle fill="#3c1053" cx="1.7" cy="1.7" r="1.7"/></svg><svg viewBox="0 0 3.4 3.4" x="1736" y="1032" width="64" height="64" shape-rendering="auto"><circle fill="#3c1053" cx="1.7" cy="1.7" r="1.7"/></svg><svg viewBox="0 0 3.4 3.4" x="264" y="1096" width="64" height="64" shape-rendering="auto"><circle fill="#3c1053" cx="1.7" cy="1.7" r="1.7"/></svg><svg viewBox="0 0 3.4 3.4" x="328" y="1096" width="64" height="64" shape-rendering="auto"><circle fill="#3c1053" cx="1.7" cy="1.7" r="1.7"/></svg><svg viewBox="0 0 3.4 3.4" x="392" y="1096" width="64" height="64" shape-rendering="auto"><circle fill="#3c1053" cx="1.7" cy="1.7" r="1.7"/></svg><svg viewBox="0 0 3.4 3.4" x="584" y="1096" width="64" height="64" shape-rendering="auto"><circle fill="#3c1053" cx="1.7" cy="1.7" r="1.7"/></svg><svg viewBox="0 0 3.4 3.4" x="648" y="1096" width="64" height="64" shape-rendering="auto"><circle fill="#3c1053" cx="1.7" cy="1.7" r="1.7"/></svg><svg viewBox="0 0 3.4 3.4" x="712" y="1096" width="64" height="64" shape-rendering="auto"><circle fill="#3c1053" cx="1.7" cy="1.7" r="1.7"/></svg><svg viewBox="0 0 3.4 3.4" x="968" y="1096" width="64" height="64" shape-rendering="auto"><circle fill="#3c1053" cx="1.7" cy="1.7" r="1.7"/></svg><svg viewBox="0 0 3.4 3.4" x="1160" y="1096" width="64" height="64" shape-rendering="auto"><circle fill="#3c1053" cx="1.7" cy="1.7" r="1.7"/></svg><svg viewBox="0 0 3.4 3.4" x="1224" y="1096" width="64" height="64" shape-rendering="auto"><circle fill="#3c1053" cx="1.7" cy="1.7" r="1.7"/></svg><svg viewBox="0 0 3.4 3.4" x="1288" y="1096" width="64" height="64" shape-rendering="auto"><circle fill="#3c1053" cx="1.7" cy="1.7" r="1.7"/></svg><svg viewBox="0 0 3.4 3.4" x="1416" y="1096" width="64" height="64" shape-rendering="auto"><circle fill="#3c1053" cx="1.7" cy="1.7" r="1.7"/></svg><svg viewBox="0 0 3.4 3.4" x="1480" y="1096" width="64" height="64" shape-rendering="auto"><circle fill="#3c1053" cx="1.7" cy="1.7" r="1.7"/></svg><svg viewBox="0 0 3.4 3.4" x="1544" y="1096" width="64" height="64" shape-rendering="auto"><circle fill="#3c1053" cx="1.7" cy="1.7" r="1.7"/></svg><svg viewBox="0 0 3.4 3.4" x="1672" y="1096" width="64" height="64" shape-rendering="auto"><circle fill="#3c1053" cx="1.7" cy="1.7" r="1.7"/></svg><svg viewBox="0 0 3.4 3.4" x="200" y="1160" width="64" height="64" shape-rendering="auto"><circle fill="#3c1053" cx="1.7" cy="1.7" r="1.7"/></svg><svg viewBox="0 0 3.4 3.4" x="328" y="1160" width="64" height="64" shape-rendering="auto"><circle fill="#3c1053" cx="1.7" cy="1.7" r="1.7"/></svg><svg viewBox="0 0 3.4 3.4" x="392" y="1160" width="64" height="64" shape-rendering="auto"><circle fill="#3c1053" cx="1.7" cy="1.7" r="1.7"/></svg><svg viewBox="0 0 3.4 3.4" x="456" y="1160" width="64" height="64" shape-rendering="auto"><circle fill="#3c1053" cx="1.7" cy="1.7" r="1.7"/></svg><svg viewBox="0 0 3.4 3.4" x="520" y="1160" width="64" height="64" shape-rendering="auto"><circle fill="#3c1053" cx="1.7" cy="1.7" r="1.7"/></svg><svg viewBox="0 0 3.4 3.4" x="712" y="1160" width="64" height="64" shape-rendering="auto"><circle fill="#3c1053" cx="1.7" cy="1.7" r="1.7"/></svg><svg viewBox="0 0 3.4 3.4" x="840" y="1160" width="64" height="64" shape-rendering="auto"><circle fill="#3c1053" cx="1.7" cy="1.7" r="1.7"/></svg><svg viewBox="0 0 3.4 3.4" x="968" y="1160" width="64" height="64" shape-rendering="auto"><circle fill="#3c1053" cx="1.7" cy="1.7" r="1.7"/></svg><svg viewBox="0 0 3.4 3.4" x="1096" y="1160" width="64" height="64" shape-rendering="auto"><circle fill="#3c1053" cx="1.7" cy="1.7" r="1.7"/></svg><svg viewBox="0 0 3.4 3.4" x="1288" y="1160" width="64" height="64" shape-rendering="auto"><circle fill="#3c1053" cx="1.7" cy="1.7" r="1.7"/></svg><svg viewBox="0 0 3.4 3.4" x="1672" y="1160" width="64" height="64" shape-rendering="auto"><circle fill="#3c1053" cx="1.7" cy="1.7" r="1.7"/></svg><svg viewBox="0 0 3.4 3.4" x="1736" y="1160" width="64" height="64" shape-rendering="auto"><circle fill="#3c1053" cx="1.7" cy="1.7" r="1.7"/></svg><svg viewBox="0 0 3.4 3.4" x="328" y="1224" width="64" height="64" shape-rendering="auto"><circle fill="#3c1053" cx="1.7" cy="1.7" r="1.7"/></svg><svg viewBox="0 0 3.4 3.4" x="392" y="1224" width="64" height="64" shape-rendering="auto"><circle fill="#3c1053" cx="1.7" cy="1.7" r="1.7"/></svg><svg viewBox="0 0 3.4 3.4" x="520" y="1224" width="64" height="64" shape-rendering="auto"><circle fill="#3c1053" cx="1.7" cy="1.7" r="1.7"/></svg><svg viewBox="0 0 3.4 3.4" x="584" y="1224" width="64" height="64" shape-rendering="auto"><circle fill="#3c1053" cx="1.7" cy="1.7" r="1.7"/></svg><svg viewBox="0 0 3.4 3.4" x="648" y="1224" width="64" height="64" shape-rendering="auto"><circle fill="#3c1053" cx="1.7" cy="1.7" r="1.7"/></svg><svg viewBox="0 0 3.4 3.4" x="776" y="1224" width="64" height="64" shape-rendering="auto"><circle fill="#3c1053" cx="1.7" cy="1.7" r="1.7"/></svg><svg viewBox="0 0 3.4 3.4" x="840" y="1224" width="64" height="64" shape-rendering="auto"><circle fill="#3c1053" cx="1.7" cy="1.7" r="1.7"/></svg><svg viewBox="0 0 3.4 3.4" x="904" y="1224" width="64" height="64" shape-rendering="auto"><circle fill="#3c1053" cx="1.7" cy="1.7" r="1.7"/></svg><svg viewBox="0 0 3.4 3.4" x="1096" y="1224" width="64" height="64" shape-rendering="auto"><circle fill="#3c1053" cx="1.7" cy="1.7" r="1.7"/></svg><svg viewBox="0 0 3.4 3.4" x="1224" y="1224" width="64" height="64" shape-rendering="auto"><circle fill="#3c1053" cx="1.7" cy="1.7" r="1.7"/></svg><svg viewBox="0 0 3.4 3.4" x="1288" y="1224" width="64" height="64" shape-rendering="auto"><circle fill="#3c1053" cx="1.7" cy="1.7" r="1.7"/></svg><svg viewBox="0 0 3.4 3.4" x="1352" y="1224" width="64" height="64" shape-rendering="auto"><circle fill="#3c1053" cx="1.7" cy="1.7" r="1.7"/></svg><svg viewBox="0 0 3.4 3.4" x="1416" y="1224" width="64" height="64" shape-rendering="auto"><circle fill="#3c1053" cx="1.7" cy="1.7" r="1.7"/></svg><svg viewBox="0 0 3.4 3.4" x="1480" y="1224" width="64" height="64" shape-rendering="auto"><circle fill="#3c1053" cx="1.7" cy="1.7" r="1.7"/></svg><svg viewBox="0 0 3.4 3.4" x="1672" y="1224" width="64" height="64" shape-rendering="auto"><circle fill="#3c1053" cx="1.7" cy="1.7" r="1.7"/></svg><svg viewBox="0 0 3.4 3.4" x="712" y="1288" width="64" height="64" shape-rendering="auto"><circle fill="#3c1053" cx="1.7" cy="1.7" r="1.7"/></svg><svg viewBox="0 0 3.4 3.4" x="840" y="1288" width="64" height="64" shape-rendering="auto"><circle fill="#3c1053" cx="1.7" cy="1.7" r="1.7"/></svg><svg viewBox="0 0 3.4 3.4" x="968" y="1288" width="64" height="64" shape-rendering="auto"><circle fill="#3c1053" cx="1.7" cy="1.7" r="1.7"/></svg><svg viewBox="0 0 3.4 3.4" x="1032" y="1288" width="64" height="64" shape-rendering="auto"><circle fill="#3c1053" cx="1.7" cy="1.7" r="1.7"/></svg><svg viewBox="0 0 3.4 3.4" x="1096" y="1288" width="64" height="64" shape-rendering="auto"><circle fill="#3c1053" cx="1.7" cy="1.7" r="1.7"/></svg><svg viewBox="0 0 3.4 3.4" x="1160" y="1288" width="64" height="64" shape-rendering="auto"><circle fill="#3c1053" cx="1.7" cy="1.7" r="1.7"/></svg><svg viewBox="0 0 3.4 3.4" x="1224" y="1288" width="64" height="64" shape-rendering="auto"><circle fill="#3c1053" cx="1.7" cy="1.7" r="1.7"/></svg><svg viewBox="0 0 3.4 3.4" x="1480" y="1288" width="64" height="64" shape-rendering="auto"><circle fill="#3c1053" cx="1.7" cy="1.7" r="1.7"/></svg><svg viewBox="0 0 3.4 3.4" x="1544" y="1288" width="64" height="64" shape-rendering="auto"><circle fill="#3c1053" cx="1.7" cy="1.7" r="1.7"/></svg><svg viewBox="0 0 3.4 3.4" x="1608" y="1288" width="64" height="64" shape-rendering="auto"><circle fill="#3c1053" cx="1.7" cy="1.7" r="1.7"/></svg><svg viewBox="0 0 3.4 3.4" x="840" y="1352" width="64" height="64" shape-rendering="auto"><circle fill="#3c1053" cx="1.7" cy="1.7" r="1.7"/></svg><svg viewBox="0 0 3.4 3.4" x="904" y="1352" width="64" height="64" shape-rendering="auto"><circle fill="#3c1053" cx="1.7" cy="1.7" r="1.7"/></svg><svg viewBox="0 0 3.4 3.4" x="968" y="1352" width="64" height="64" shape-rendering="auto"><circle fill="#3c1053" cx="1.7" cy="1.7" r="1.7"/></svg><svg viewBox="0 0 3.4 3.4" x="1032" y="1352" width="64" height="64" shape-rendering="auto"><circle fill="#3c1053" cx="1.7" cy="1.7" r="1.7"/></svg><svg viewBox="0 0 3.4 3.4" x="1096" y="1352" width="64" height="64" shape-rendering="auto"><circle fill="#3c1053" cx="1.7" cy="1.7" r="1.7"/></svg><svg viewBox="0 0 3.4 3.4" x="1224" y="1352" width="64" height="64" shape-rendering="auto"><circle fill="#3c1053" cx="1.7" cy="1.7" r="1.7"/></svg><svg viewBox="0 0 3.4 3.4" x="1352" y="1352" width="64" height="64" shape-rendering="auto"><circle fill="#3c1053" cx="1.7" cy="1.7" r="1.7"/></svg><svg viewBox="0 0 3.4 3.4" x="1480" y="1352" width="64" height="64" shape-rendering="auto"><circle fill="#3c1053" cx="1.7" cy="1.7" r="1.7"/></svg><svg viewBox="0 0 3.4 3.4" x="1608" y="1352" width="64" height="64" shape-rendering="auto"><circle fill="#3c1053" cx="1.7" cy="1.7" r="1.7"/></svg><svg viewBox="0 0 3.4 3.4" x="1672" y="1352" width="64" height="64" shape-rendering="auto"><circle fill="#3c1053" cx="1.7" cy="1.7" r="1.7"/></svg><svg viewBox="0 0 3.4 3.4" x="1736" y="1352" width="64" height="64" shape-rendering="auto"><circle fill="#3c1053" cx="1.7" cy="1.7" r="1.7"/></svg><svg viewBox="0 0 3.4 3.4" x="776" y="1416" width="64" height="64" shape-rendering="auto"><circle fill="#3c1053" cx="1.7" cy="1.7" r="1.7"/></svg><svg viewBox="0 0 3.4 3.4" x="968" y="1416" width="64" height="64" shape-rendering="auto"><circle fill="#3c1053" cx="1.7" cy="1.7" r="1.7"/></svg><svg viewBox="0 0 3.4 3.4" x="1160" y="1416" width="64" height="64" shape-rendering="auto"><circle fill="#3c1053" cx="1.7" cy="1.7" r="1.7"/></svg><svg viewBox="0 0 3.4 3.4" x="1224" y="1416" width="64" height="64" shape-rendering="auto"><circle fill="#3c1053" cx="1.7" cy="1.7" r="1.7"/></svg><svg viewBox="0 0 3.4 3.4" x="1480" y="1416" width="64" height="64" shape-rendering="auto"><circle fill="#3c1053" cx="1.7" cy="1.7" r="1.7"/></svg><svg viewBox="0 0 3.4 3.4" x="1672" y="1416" width="64" height="64" shape-rendering="auto"><circle fill="#3c1053" cx="1.7" cy="1.7" r="1.7"/></svg><svg viewBox="0 0 3.4 3.4" x="1736" y="1416" width="64" height="64" shape-rendering="auto"><circle fill="#3c1053" cx="1.7" cy="1.7" r="1.7"/></svg><svg viewBox="0 0 3.4 3.4" x="840" y="1480" width="64" height="64" shape-rendering="auto"><circle fill="#3c1053" cx="1.7" cy="1.7" r="1.7"/></svg><svg viewBox="0 0 3.4 3.4" x="904" y="1480" width="64" height="64" shape-rendering="auto"><circle fill="#3c1053" cx="1.7" cy="1.7" r="1.7"/></svg><svg viewBox="0 0 3.4 3.4" x="1160" y="1480" width="64" height="64" shape-rendering="auto"><circle fill="#3c1053" cx="1.7" cy="1.7" r="1.7"/></svg><svg viewBox="0 0 3.4 3.4" x="1224" y="1480" width="64" height="64" shape-rendering="auto"><circle fill="#3c1053" cx="1.7" cy="1.7" r="1.7"/></svg><svg viewBox="0 0 3.4 3.4" x="1288" y="1480" width="64" height="64" shape-rendering="auto"><circle fill="#3c1053" cx="1.7" cy="1.7" r="1.7"/></svg><svg viewBox="0 0 3.4 3.4" x="1352" y="1480" width="64" height="64" shape-rendering="auto"><circle fill="#3c1053" cx="1.7" cy="1.7" r="1.7"/></svg><svg viewBox="0 0 3.4 3.4" x="1416" y="1480" width="64" height="64" shape-rendering="auto"><circle fill="#3c1053" cx="1.7" cy="1.7" r="1.7"/></svg><svg viewBox="0 0 3.4 3.4" x="1480" y="1480" width="64" height="64" shape-rendering="auto"><circle fill="#3c1053" cx="1.7" cy="1.7" r="1.7"/></svg><svg viewBox="0 0 3.4 3.4" x="1608" y="1480" width="64" height="64" shape-rendering="auto"><circle fill="#3c1053" cx="1.7" cy="1.7" r="1.7"/></svg><svg viewBox="0 0 3.4 3.4" x="1736" y="1480" width="64" height="64" shape-rendering="auto"><circle fill="#3c1053" cx="1.7" cy="1.7" r="1.7"/></svg><svg viewBox="0 0 3.4 3.4" x="712" y="1544" width="64" height="64" shape-rendering="auto"><circle fill="#3c1053" cx="1.7" cy="1.7" r="1.7"/></svg><svg viewBox="0 0 3.4 3.4" x="776" y="1544" width="64" height="64" shape-rendering="auto"><circle fill="#3c1053" cx="1.7" cy="1.7" r="1.7"/></svg><svg viewBox="0 0 3.4 3.4" x="968" y="1544" width="64" height="64" shape-rendering="auto"><circle fill="#3c1053" cx="1.7" cy="1.7" r="1.7"/></svg><svg viewBox="0 0 3.4 3.4" x="1096" y="1544" width="64" height="64" shape-rendering="auto"><circle fill="#3c1053" cx="1.7" cy="1.7" r="1.7"/></svg><svg viewBox="0 0 3.4 3.4" x="1160" y="1544" width="64" height="64" shape-rendering="auto"><circle fill="#3c1053" cx="1.7" cy="1.7" r="1.7"/></svg><svg viewBox="0 0 3.4 3.4" x="1224" y="1544" width="64" height="64" shape-rendering="auto"><circle fill="#3c1053" cx="1.7" cy="1.7" r="1.7"/></svg><svg viewBox="0 0 3.4 3.4" x="1352" y="1544" width="64" height="64" shape-rendering="auto"><circle fill="#3c1053" cx="1.7" cy="1.7" r="1.7"/></svg><svg viewBox="0 0 3.4 3.4" x="1480" y="1544" width="64" height="64" shape-rendering="auto"><circle fill="#3c1053" cx="1.7" cy="1.7" r="1.7"/></svg><svg viewBox="0 0 3.4 3.4" x="1672" y="1544" width="64" height="64" shape-rendering="auto"><circle fill="#3c1053" cx="1.7" cy="1.7" r="1.7"/></svg><svg viewBox="0 0 3.4 3.4" x="1736" y="1544" width="64" height="64" shape-rendering="auto"><circle fill="#3c1053" cx="1.7" cy="1.7" r="1.7"/></svg><svg viewBox="0 0 3.4 3.4" x="712" y="1608" width="64" height="64" shape-rendering="auto"><circle fill="#3c1053" cx="1.7" cy="1.7" r="1.7"/></svg><svg viewBox="0 0 3.4 3.4" x="840" y="1608" width="64" height="64" shape-rendering="auto"><circle fill="#3c1053" cx="1.7" cy="1.7" r="1.7"/></svg><svg viewBox="0 0 3.4 3.4" x="904" y="1608" width="64" height="64" shape-rendering="auto"><circle fill="#3c1053" cx="1.7" cy="1.7" r="1.7"/></svg><svg viewBox="0 0 3.4 3.4" x="1032" y="1608" width="64" height="64" shape-rendering="auto"><circle fill="#3c1053" cx="1.7" cy="1.7" r="1.7"/></svg><svg viewBox="0 0 3.4 3.4" x="1160" y="1608" width="64" height="64" shape-rendering="auto"><circle fill="#3c1053" cx="1.7" cy="1.7" r="1.7"/></svg><svg viewBox="0 0 3.4 3.4" x="1288" y="1608" width="64" height="64" shape-rendering="auto"><circle fill="#3c1053" cx="1.7" cy="1.7" r="1.7"/></svg><svg viewBox="0 0 3.4 3.4" x="1352" y="1608" width="64" height="64" shape-rendering="auto"><circle fill="#3c1053" cx="1.7" cy="1.7" r="1.7"/></svg><svg viewBox="0 0 3.4 3.4" x="1544" y="1608" width="64" height="64" shape-rendering="auto"><circle fill="#3c1053" cx="1.7" cy="1.7" r="1.7"/></svg><svg viewBox="0 0 3.4 3.4" x="1608" y="1608" width="64" height="64" shape-rendering="auto"><circle fill="#3c1053" cx="1.7" cy="1.7" r="1.7"/></svg><svg viewBox="0 0 3.4 3.4" x="1672" y="1608" width="64" height="64" shape-rendering="auto"><circle fill="#3c1053" cx="1.7" cy="1.7" r="1.7"/></svg><svg viewBox="0 0 3.4 3.4" x="712" y="1672" width="64" height="64" shape-rendering="auto"><circle fill="#3c1053" cx="1.7" cy="1.7" r="1.7"/></svg><svg viewBox="0 0 3.4 3.4" x="1032" y="1672" width="64" height="64" shape-rendering="auto"><circle fill="#3c1053" cx="1.7" cy="1.7" r="1.7"/></svg><svg viewBox="0 0 3.4 3.4" x="1096" y="1672" width="64" height="64" shape-rendering="auto"><circle fill="#3c1053" cx="1.7" cy="1.7" r="1.7"/></svg><svg viewBox="0 0 3.4 3.4" x="1160" y="1672" width="64" height="64" shape-rendering="auto"><circle fill="#3c1053" cx="1.7" cy="1.7" r="1.7"/></svg><svg viewBox="0 0 3.4 3.4" x="1288" y="1672" width="64" height="64" shape-rendering="auto"><circle fill="#3c1053" cx="1.7" cy="1.7" r="1.7"/></svg><svg viewBox="0 0 3.4 3.4" x="1480" y="1672" width="64" height="64" shape-rendering="auto"><circle fill="#3c1053" cx="1.7" cy="1.7" r="1.7"/></svg><svg viewBox="0 0 3.4 3.4" x="1608" y="1672" width="64" height="64" shape-rendering="auto"><circle fill="#3c1053" cx="1.7" cy="1.7" r="1.7"/></svg><svg viewBox="0 0 3.4 3.4" x="1672" y="1672" width="64" height="64" shape-rendering="auto"><circle fill="#3c1053" cx="1.7" cy="1.7" r="1.7"/></svg><svg viewBox="0 0 3.4 3.4" x="1736" y="1672" width="64" height="64" shape-rendering="auto"><circle fill="#3c1053" cx="1.7" cy="1.7" r="1.7"/></svg><svg viewBox="0 0 3.4 3.4" x="712" y="1736" width="64" height="64" shape-rendering="auto"><circle fill="#3c1053" cx="1.7" cy="1.7" r="1.7"/></svg><svg viewBox="0 0 3.4 3.4" x="1032" y="1736" width="64" height="64" shape-rendering="auto"><circle fill="#3c1053" cx="1.7" cy="1.7" r="1.7"/></svg><svg viewBox="0 0 3.4 3.4" x="1096" y="1736" width="64" height="64" shape-rendering="auto"><circle fill="#3c1053" cx="1.7" cy="1.7" r="1.7"/></svg><svg viewBox="0 0 3.4 3.4" x="1160" y="1736" width="64" height="64" shape-rendering="auto"><circle fill="#3c1053" cx="1.7" cy="1.7" r="1.7"/></svg><svg viewBox="0 0 3.4 3.4" x="1608" y="1736" width="64" height="64" shape-rendering="auto"><circle fill="#3c1053" cx="1.7" cy="1.7" r="1.7"/></svg><svg viewBox="0 0 3.4 3.4" x="1672" y="1736" width="64" height="64" shape-rendering="auto"><circle fill="#3c1053" cx="1.7" cy="1.7" r="1.7"/></svg><svg viewBox="0 0 3.4 3.4" x="1736" y="1736" width="64" height="64" shape-rendering="auto"><circle fill="#3c1053" cx="1.7" cy="1.7" r="1.7"/></svg><svg version="1.1" id="Ebene_1" x="200" y="200" width="448" height="448" viewBox="0 0 699.988 699.988" enable-background="new 0 0 699.988 699.988" xml:space="preserve" shape-rendering="auto">
<path fill="#428b85" d="M488.367,0H211.621C94.746,0,0,94.746,0,211.621v276.745c0,116.876,94.746,211.622,211.621,211.622h276.746  c116.875,0,211.621-94.746,211.621-211.622V211.621C699.988,94.746,605.242,0,488.367,0z M599.99,448.832  c0,83.482-67.676,151.158-151.158,151.158H251.156c-83.482,0-151.158-67.676-151.158-151.158V251.156  c0-83.482,67.676-151.158,151.158-151.158h197.676c83.482,0,151.158,67.676,151.158,151.158V448.832z"/>
</svg>
<svg version="1.1" id="Ebene_1" x="200" y="200" width="448" height="448" viewBox="0 0 699.988 699.988" enable-background="new 0 0 699.988 699.988" xml:space="preserve" shape-rendering="auto">
<path fill="#382db8" d="M499.991,409.296c0,50.091-40.604,90.694-90.693,90.694H290.691c-50.089,0-90.694-40.604-90.694-90.694  V290.692c0-50.09,40.605-90.694,90.694-90.694h118.605c50.089,0,90.693,40.604,90.693,90.694L499.991,409.296L499.991,409.296z"/>
</svg>
<svg version="1.1" id="Ebene_1" x="1352" y="200" width="448" height="448" viewBox="0 0 699.988 699.988" enable-background="new 0 0 699.988 699.988" xml:space="preserve" shape-rendering="auto">
<path fill="#428b85" d="M488.367,0H211.621C94.746,0,0,94.746,0,211.621v276.745c0,116.876,94.746,211.622,211.621,211.622h276.746  c116.875,0,211.621-94.746,211.621-211.622V211.621C699.988,94.746,605.242,0,488.367,0z M599.99,448.832  c0,83.482-67.676,151.158-151.158,151.158H251.156c-83.482,0-151.158-67.676-151.158-151.158V251.156  c0-83.482,67.676-151.158,151.158-151.158h197.676c83.482,0,151.158,67.676,151.158,151.158V448.832z"/>
</svg>
<svg version="1.1" id="Ebene_1" x="1352" y="200" width="448" height="448" viewBox="0 0 699.988 699.988" enable-background="new 0 0 699.988 699.988" xml:space="preserve" shape-rendering="auto">
<path fill="#382db8" d="M499.991,409.296c0,50.091-40.604,90.694-90.693,90.694H290.691c-50.089,0-90.694-40.604-90.694-90.694  V290.692c0-50.09,40.605-90.694,90.694-90.694h118.605c50.089,0,90.693,40.604,90.693,90.694L499.991,409.296L499.991,409.296z"/>
</svg>
<svg version="1.1" id="Ebene_1" x="200" y="1352" width="448" height="448" viewBox="0 0 699.988 699.988" enable-background="new 0 0 699.988 699.988" xml:space="preserve" shape-rendering="auto">
<path fill="#428b85" d="M488.367,0H211.621C94.746,0,0,94.746,0,211.621v276.745c0,116.876,94.746,211.622,211.621,211.622h276.746  c116.875,0,211.621-94.746,211.621-211.622V211.621C699.988,94.746,605.242,0,488.367,0z M599.99,448.832  c0,83.482-67.676,151.158-151.158,151.158H251.156c-83.482,0-151.158-67.676-151.158-151.158V251.156  c0-83.482,67.676-151.158,151.158-151.158h197.676c83.482,0,151.158,67.676,151.158,151.158V448.832z"/>
</svg>
<svg version="1.1" id="Ebene_1" x="200" y="1352" width="448" height="448" viewBox="0 0 699.988 699.988" enable-background="new 0 0 699.988 699.988" xml:space="preserve" shape-rendering="auto">
<path fill="#382db8" d="M499.991,409.296c0,50.091-40.604,90.694-90.693,90.694H290.691c-50.089,0-90.694-40.604-90.694-90.694  V290.692c0-50.09,40.605-90.694,90.694-90.694h118.605c50.089,0,90.693,40.604,90.693,90.694L499.991,409.296L499.991,409.296z"/>
</svg>
</svg>

<path id="FrameBody" class="frame-color" d="M243.1,289.8H35.9c-19.8,0-35.9,16.1-35.9,36l0,0c0,19.8,16.1,35.9,35.9,35.9H243
	c19.8,0,35.9-16.1,35.9-35.9l0,0C279,305.9,262.9,289.8,243.1,289.8L243.1,289.8z M265.3,0H13.7C6.1,0,0,6.1,0,13.7v251.7
	c0,7.5,6.1,13.7,13.7,13.7h251.7c7.5,0,13.7-6.1,13.7-13.7V13.7C279,6.1,272.9,0,265.3,0z M268.5,261.1c0,4.1-3.3,7.4-7.4,7.4H17.9
	c-4.1,0-7.4-3.3-7.4-7.4V17.9c0-4.1,3.3-7.4,7.4-7.4h243.2c4.1,0,7.4,3.3,7.4,7.4V261.1z"/>
<path id="IconCircle" class="circle-color show_on_light" d="M35.9,297.2c-15.8,0-28.5,12.7-28.5,28.5s12.7,28.5,28.5,28.5s28.5-12.7,28.5-28.5
	C64.4,310,51.7,297.2,35.9,297.2z"/>
<path id="IconCircle" class="circle-color-black hide_on_light" d="M35.9,297.2c-15.8,0-28.5,12.7-28.5,28.5s12.7,28.5,28.5,28.5s28.5-12.7,28.5-28.5
	C64.4,310,51.7,297.2,35.9,297.2z"/>
<path id="IconCircleOutline" class="circle-outline show_on_light" d="M35.9,299.2c14.6,0,26.5,11.9,26.5,26.5s-11.9,26.5-26.5,26.5S9.4,340.3,9.4,325.7
	S21.3,299.2,35.9,299.2 M35.9,297.2c-15.8,0-28.5,12.7-28.5,28.5s12.7,28.5,28.5,28.5s28.5-12.7,28.5-28.5
	C64.4,310,51.7,297.2,35.9,297.2L35.9,297.2z"/>
<path id="PdfIcon" class="icon-color hide_on_light" d="M22.4,343.1c-0.6,0-1.2-0.2-1.7-0.5c-1.3-0.8-1.8-2.1-1.6-3.6c0.5-2.9,4.3-6.1,9.5-8.3
	c1.4-3.2,2.6-6.9,3.6-10.6c-3.3-5.1-4.9-9.8-3.9-12.4c0.4-1.1,1.3-1.8,2.5-1.9c1-0.1,2.4,0.3,3.6,1.7c1.4,1.6,2.7,5,1.1,12.1
	c0.9,1.3,1.9,2.6,3.2,4c1.3,1.5,2.5,2.7,3.6,3.8c7.4-1,9.8,0.1,11,1.1c0.9,0.7,1.4,1.7,1.4,2.9c0,1.7-0.9,3-2.4,3.6
	c-1.7,0.6-5.1,0.7-11-4.4c-1.4,0.2-2.9,0.5-4.6,0.9c-2.1,0.4-4.1,1-5.7,1.7c-2.2,4.9-4.7,8.9-7.2,9.9
	C23.3,343,22.8,343.1,22.4,343.1z M26.5,335.1c-2.7,1.7-4.2,3.4-4.4,4.4c0,0.3,0,0.4,0.2,0.5c0,0,0.1,0,0.2,0
	C23.7,339.6,25.1,337.7,26.5,335.1z M45.5,329.9c2.9,2.1,4.8,2.4,5.7,2.1c0.1-0.1,0.5-0.2,0.5-0.8c0-0.3-0.1-0.4-0.3-0.6
	C50.9,330.2,49.6,329.6,45.5,329.9z M34.5,323.1c-0.6,2-1.3,4-2,6.1c1.2-0.4,2.4-0.7,3.6-0.9c0.9-0.2,1.7-0.3,2.5-0.5
	c-0.7-0.7-1.4-1.5-2.2-2.3C35.7,324.7,35.1,323.9,34.5,323.1z M31.1,308.7c-0.3,0.6,0,3.2,2,6.9c0.4-3.8-0.3-5.5-0.9-6.2
	C31.8,308.9,31.3,308.7,31.1,308.7z"/>
<path id="PdfIconBlack" class="icon-black show_on_light" d="M22.4,343.1c-0.6,0-1.2-0.2-1.7-0.5c-1.3-0.8-1.8-2.1-1.6-3.6c0.5-2.9,4.3-6.1,9.5-8.3
	c1.4-3.2,2.6-6.9,3.6-10.6c-3.3-5.1-4.9-9.8-3.9-12.4c0.4-1.1,1.3-1.8,2.5-1.9c1-0.1,2.4,0.3,3.6,1.7c1.4,1.6,2.7,5,1.1,12.1
	c0.9,1.3,1.9,2.6,3.2,4c1.3,1.5,2.5,2.7,3.6,3.8c7.4-1,9.8,0.1,11,1.1c0.9,0.7,1.4,1.7,1.4,2.9c0,1.7-0.9,3-2.4,3.6
	c-1.7,0.6-5.1,0.7-11-4.4c-1.4,0.2-2.9,0.5-4.6,0.9c-2.1,0.4-4.1,1-5.7,1.7c-2.2,4.9-4.7,8.9-7.2,9.9
	C23.3,343,22.8,343.1,22.4,343.1z M26.5,335.1c-2.7,1.7-4.2,3.4-4.4,4.4c0,0.3,0,0.4,0.2,0.5c0,0,0.1,0,0.2,0
	C23.7,339.6,25.1,337.7,26.5,335.1z M45.5,329.9c2.9,2.1,4.8,2.4,5.7,2.1c0.1-0.1,0.5-0.2,0.5-0.8c0-0.3-0.1-0.4-0.3-0.6
	C50.9,330.2,49.6,329.6,45.5,329.9z M34.5,323.1c-0.6,2-1.3,4-2,6.1c1.2-0.4,2.4-0.7,3.6-0.9c0.9-0.2,1.7-0.3,2.5-0.5
	c-0.7-0.7-1.4-1.5-2.2-2.3C35.7,324.7,35.1,323.9,34.5,323.1z M31.1,308.7c-0.3,0.6,0,3.2,2,6.9c0.4-3.8-0.3-5.5-0.9-6.2
	C31.8,308.9,31.3,308.7,31.1,308.7z"/>
	<svg id="TextArea" x="70" y="295" width="180" height="62" viewBox="0 0 74.68505859375 17.588541666667" preserveAspectRatio="xMidYMid meet">
<svg version="1.1" xmlns="http://www.w3.org/2000/svg"><path class="text-color" fill="#FFFFFF" d=" M10.2158203125,9.18994140625q0,1.9443359375-1.060791015625,2.972900390625t-3.042724609375,1.028564453125l-2.18603515625,0l0-7.8525390625l2.4169921875,0q1.83154296875,0,2.85205078125,1.007080078125t1.0205078125,2.843994140625z M9.173828125,9.22216796875q0-1.49853515625-0.738525390625-2.269287109375t-2.231689453125-0.770751953125l-1.2890625,0l0,6.16064453125l1.06884765625,0q3.1904296875,0,3.1904296875-3.12060546875z M16.94580078125,10.23193359375q0,1.44482421875-0.73046875,2.255859375t-2.01953125,0.81103515625q-0.80029296875,0-1.41796875-0.373291015625t-0.95068359375-1.071533203125t-0.3330078125-1.6220703125q0-1.439453125,0.7197265625-2.242431640625t2.01953125-0.802978515625q1.24609375,0,1.979248046875,0.819091796875t0.733154296875,2.226318359375z M12.4931640625,10.23193359375q0,1.11181640625,0.437744140625,1.689208984375t1.291748046875,0.577392578125q0.84326171875,0,1.28369140625-0.577392578125t0.4404296875-1.689208984375t-0.443115234375-1.673095703125t-1.297119140625-0.561279296875q-1.71337890625,0-1.71337890625,2.234375z M23.29443359375,13.19140625l-1.009765625-3.3193359375q-0.1396484375-0.41357421875-0.408203125-1.56298828125l-0.04296875,0q-0.2255859375,1.04736328125-0.3974609375,1.57373046875l-1.05810546875,3.30859375l-1.095703125,0l-1.61669921875-5.8974609375l0.9990234375,0q0.55859375,2.17529296875,0.851318359375,3.30859375t0.346435546875,1.6005859375l0.04296875,0l0.0751953125-0.3330078125q0.16650390625-0.76806640625,0.322265625-1.25146484375l1.04736328125-3.32470703125l1.052734375,0l1.01513671875,3.32470703125q0.0537109375,0.18798828125,0.115478515625,0.400146484375t0.115478515625,0.4189453125t0.0966796875,0.40283203125t0.064453125,0.351806640625l0.04833984375,0q0.04833984375-0.408203125,0.39208984375-1.7509765625l0.8271484375-3.1474609375l0.98828125,0l-1.63818359375,5.8974609375l-1.13330078125,0z M31.1416015625,13.19140625l0-3.7705078125q0-0.7197265625-0.319580078125-1.071533203125t-1.001708984375-0.351806640625q-0.90771484375,0-1.318603515625,0.502197265625t-0.410888671875,1.635498046875l0,3.05615234375l-0.966796875,0l0-5.8974609375l0.77880859375,0l0.14501953125,0.8056640625l0.0537109375,0q0.27392578125-0.43505859375,0.76806640625-0.674072265625t1.09033203125-0.239013671875q1.0849609375,0,1.611328125,0.5263671875t0.5263671875,1.63818359375l0,3.84033203125l-0.9560546875,0z M34.890625,13.19140625l-0.966796875,0l0-8.357421875l0.966796875,0l0,8.357421875z M41.8837890625,10.23193359375q0,1.44482421875-0.73046875,2.255859375t-2.01953125,0.81103515625q-0.80029296875,0-1.41796875-0.373291015625t-0.95068359375-1.071533203125t-0.3330078125-1.6220703125q0-1.439453125,0.7197265625-2.242431640625t2.01953125-0.802978515625q1.24609375,0,1.979248046875,0.819091796875t0.733154296875,2.226318359375z M37.43115234375,10.23193359375q0,1.11181640625,0.437744140625,1.689208984375t1.291748046875,0.577392578125q0.84326171875,0,1.28369140625-0.577392578125t0.4404296875-1.689208984375t-0.443115234375-1.673095703125t-1.297119140625-0.561279296875q-1.71337890625,0-1.71337890625,2.234375z M47.05615234375,13.19140625l-0.18798828125-0.837890625l-0.04296875,0q-0.4404296875,0.55322265625-0.878173828125,0.749267578125t-1.103759765625,0.196044921875q-0.8701171875,0-1.3642578125-0.45654296875t-0.494140625-1.2890625q0-1.7939453125,2.83056640625-1.8798828125l0.9990234375-0.03759765625l0-0.34912109375q0-0.67138671875-0.2900390625-0.990966796875t-0.92919921875-0.319580078125q-0.46728515625,0-0.883544921875,0.1396484375t-0.781494140625,0.3115234375l-0.29541015625-0.72509765625q0.44580078125-0.236328125,0.97216796875-0.37060546875t1.0419921875-0.13427734375q1.06884765625,0,1.58984375,0.47265625t0.52099609375,1.50390625l0,4.017578125l-0.70361328125,0z M45.0634765625,12.52001953125q0.81103515625,0,1.275634765625-0.437744140625t0.464599609375-1.243408203125l0-0.53173828125l-0.8701171875,0.03759765625q-1.01513671875,0.03759765625-1.479736328125,0.322265625t-0.464599609375,0.89697265625q0,0.4619140625,0.281982421875,0.708984375t0.792236328125,0.2470703125z M51.67529296875,13.298828125q-1.1494140625,0-1.783203125-0.794921875t-0.6337890625-2.25048828125q0-1.44482421875,0.636474609375-2.255859375t1.791259765625-0.81103515625q1.18701171875,0,1.826171875,0.8701171875l0.06982421875,0q-0.01611328125-0.107421875-0.04296875-0.432373046875t-0.02685546875-0.437744140625l0-2.3525390625l0.966796875,0l0,8.357421875l-0.77880859375,0l-0.14501953125-0.78955078125l-0.04296875,0q-0.61767578125,0.89697265625-1.8369140625,0.89697265625z M51.8310546875,12.49853515625q0.880859375,0,1.286376953125-0.480712890625t0.405517578125-1.576416015625l0-0.17724609375q0-1.22998046875-0.410888671875-1.753662109375t-1.291748046875-0.523681640625q-0.74658203125,0-1.15478515625,0.593505859375t-0.408203125,1.694580078125q0,1.095703125,0.405517578125,1.65966796875t1.168212890625,0.56396484375z  M62.70751953125,6.09619140625q-1.267578125,0-1.99267578125,0.8486328125t-0.72509765625,2.3203125q0,1.52001953125,0.70361328125,2.344482421875t2.00341796875,0.824462890625q0.837890625,0,1.88525390625-0.3115234375l0,0.859375q-0.49951171875,0.1826171875-0.96142578125,0.249755859375t-1.0634765625,0.067138671875q-1.73486328125,0-2.672119140625-1.055419921875t-0.937255859375-2.989013671875q0-1.2138671875,0.448486328125-2.126953125t1.30517578125-1.4072265625t2.016845703125-0.494140625q1.24609375,0,2.169921875,0.4619140625l-0.3974609375,0.837890625q-0.93994140625-0.4296875-1.783203125-0.4296875z M65.2265625,5.3388671875l1.03662109375,0l1.76708984375,5.0380859375q0.33837890625,0.9560546875,0.494140625,1.71337890625q0.13427734375-0.6767578125,0.49951171875-1.73486328125l1.75634765625-5.0166015625l1.04736328125,0l-2.8037109375,7.8525390625l-0.99365234375,0z "/></svg>
</svg>

</svg>
